<?xml version="1.0" encoding="UTF-8" standalone="no"?>
<svg
   version="1.1"
   viewBox="0 0 500 100"
   id="svg38"
   sodipodi:docname="enigma-color-text.svg"
   inkscape:version="1.2 (dc2aedaf03, 2022-05-15)"
   width="500"
   height="100"
   xmlns:inkscape="http://www.inkscape.org/namespaces/inkscape"
   xmlns:sodipodi="http://sodipodi.sourceforge.net/DTD/sodipodi-0.dtd"
   xmlns="http://www.w3.org/2000/svg"
   xmlns:svg="http://www.w3.org/2000/svg">
  <defs
     id="defs42" />
  <sodipodi:namedview
     id="namedview40"
     pagecolor="#ffffff"
     bordercolor="#000000"
     borderopacity="0.25"
     inkscape:showpageshadow="2"
     inkscape:pageopacity="0.0"
     inkscape:pagecheckerboard="0"
     inkscape:deskcolor="#d1d1d1"
     showgrid="false"
     inkscape:zoom="0.83"
     inkscape:cx="-302.40964"
     inkscape:cy="279.51807"
     inkscape:window-width="1920"
     inkscape:window-height="1009"
     inkscape:window-x="-8"
     inkscape:window-y="-8"
     inkscape:window-maximized="1"
     inkscape:current-layer="svg38" />
  <g
     id="g392"
     style="fill:#f95959;fill-opacity:1"
     transform="matrix(0.98778238,0,0,0.94517637,1.222257,-384.26138)">
    <path
       fill="#23272f"
       d="M 276.95,479.18 277,464.74 a 0.74,0.73 -90 0 1 0.73,-0.74 l 9.29,0.02 a 0.97,0.97 0 0 1 0.97,0.97 l -0.02,23.49 a 0.61,0.6 -5.2 0 1 -0.5,0.59 c -14.06,2.61 -42.18,6.81 -42.64,-15.64 q -0.07,-3.51 0.13,-19.65 c 0.13,-10.48 -0.4,-18.42 8.63,-23.21 8.01,-4.24 21.21,-2.95 30.84,-1.31 a 1.84,1.84 -82.3 0 1 1.52,2 l -0.7,7.24 a 1.42,1.4 -85.1 0 1 -1.49,1.27 q -8.36,-0.54 -16.73,-0.95 c -5.88,-0.29 -9.51,2.06 -9.79,8.08 q -0.48,10.5 -0.19,20.92 c 0.18,6.44 0.16,11.46 7.41,12.25 q 5.62,0.61 11.99,-0.31 a 0.6,0.58 86.6 0 0 0.5,-0.58 z"
       id="path24"
       style="fill:#f95959;fill-opacity:1" />
    <path
       fill="#23272f"
       d="m 457.27,440.24 -0.22,0.01 a 0.4,0.31 -81.2 0 0 -0.29,0.28 l -14.32,48.77 a 0.96,0.96 8.1 0 1 -0.92,0.69 l -10.78,-0.01 a 0.75,0.74 -81.4 0 1 -0.71,-0.97 l 18.83,-59.36 a 1.26,1.15 7.8 0 1 1.18,-0.82 l 14.52,0.01 a 1.42,1.31 -8.1 0 1 1.33,0.92 l 18.79,59.69 a 0.44,0.43 -8.4 0 1 -0.42,0.56 l -11.55,0.04 a 0.66,0.66 81.7 0 1 -0.63,-0.47 l -14.27,-48.86 a 0.65,0.46 76.5 0 0 -0.54,-0.48 z"
       id="path26"
       style="fill:#f95959;fill-opacity:1" />
    <path
       fill="#23272f"
       d="m 56.05,429.43 c 1.52,1.19 0.98,7.01 0.83,9.01 a 0.55,0.54 2.2 0 1 -0.55,0.5 H 19.66 a 0.53,0.51 0 0 1 -0.53,-0.51 l -0.07,-8.78 A 0.67,0.64 -0.4 0 1 19.73,429 l 35.11,0.01 a 1.96,1.94 -25.6 0 1 1.21,0.42 z"
       id="path28"
       style="fill:#f95959;fill-opacity:1" />
    <path
       fill="#23272f"
       d="m 135.94,472.52 0.05,-42.14 a 1.37,1.33 -89.8 0 1 1.34,-1.37 l 10.15,0.03 a 0.51,0.5 -89.4 0 1 0.49,0.51 l -0.02,59.79 a 0.52,0.5 -90 0 1 -0.5,0.52 l -14.97,0.05 a 0.79,0.73 75.5 0 1 -0.69,-0.44 l -20.93,-41.75 q -2.12,-4.23 -2.1,0.52 l 0.19,40.83 a 0.93,0.92 0 0 1 -0.93,0.92 L 98.7,489.98 A 0.71,0.7 90 0 1 98,489.27 V 429.73 A 0.73,0.73 -89.4 0 1 98.73,429 l 14.26,0.02 a 0.8,0.8 76.9 0 1 0.72,0.45 l 21.47,42.94 a 0.58,0.33 68.4 0 0 0.44,0.35 l 0.16,-0.02 a 0.23,0.18 87.2 0 0 0.16,-0.22 z"
       id="path30"
       style="fill:#f95959;fill-opacity:1" />
    <rect
       fill="#23272f"
       x="191"
       y="428.98999"
       width="12"
       height="61"
       rx="0.69999999"
       id="rect32"
       style="fill:#f95959;fill-opacity:1" />
    <path
       fill="#23272f"
       d="m 342.03,455.52 -1.18,33.03 a 1.79,1.72 1.8 0 1 -1.84,1.66 l -8.96,-0.26 a 1.44,1.43 2.2 0 1 -1.39,-1.49 l 2.5,-58.17 a 1.21,1.15 -88.7 0 1 1.15,-1.16 l 11.98,0.01 a 0.78,0.71 78.6 0 1 0.68,0.5 l 14.72,40.32 q 0.63,1.73 1.26,0 l 14.57,-40.17 a 1.16,1.15 -79.8 0 1 1.08,-0.76 l 11.63,-0.01 a 1.02,1.01 88.5 0 1 1.01,0.97 q 1.31,27.51 2.52,55.01 0.12,2.74 -0.34,4.51 a 0.65,0.63 6.8 0 1 -0.63,0.48 l -10,0.01 a 0.8,0.79 -1.9 0 1 -0.8,-0.74 q -1.34,-17.1 -0.94,-34.25 0.04,-1.49 -0.73,-1.37 a 1.01,0.63 -78.5 0 0 -0.62,0.65 l -9.51,26.69 a 1.36,1.35 9.7 0 1 -1.28,0.9 l -14.03,0.01 a 0.73,0.67 79.7 0 1 -0.65,-0.49 l -9.08,-26.08 q -1,-2.88 -1.12,0.2 z"
       id="path34"
       style="fill:#f95959;fill-opacity:1" />
    <path
       fill="#23272f"
       d="m 31.05,464.56 -0.01,14.92 a 0.51,0.5 0 0 0 0.51,0.5 l 24.29,0.03 a 1.17,1.11 1.4 0 1 1.17,1.17 l -0.39,7.51 a 1.43,1.36 1.5 0 1 -1.42,1.29 l -35.89,0.01 a 0.3,0.3 89.7 0 1 -0.3,-0.3 v -35.38 a 0.3,0.3 -89.7 0 1 0.3,-0.3 h 34.98 a 0.72,0.71 -90 0 1 0.71,0.72 v 8.78 a 0.51,0.51 1.3 0 1 -0.51,0.51 l -22.92,0.04 a 0.52,0.5 0 0 0 -0.52,0.5 z"
       id="path36"
       style="fill:#f95959;fill-opacity:1" />
  </g>
</svg>
