<?xml version="1.0" encoding="UTF-8" standalone="no"?>
<svg
	xmlns="http://www.w3.org/2000/svg" xmlns:svg="http://www.w3.org/2000/svg" version="1.1" viewBox="0 0 500 100" id="Enimgma color">
	<g id="text" transform="matrix(0.98778238,0,0,0.94517637,1.222257,-384.26138)">
		<path id="E-Upper"
			d="M56.05,429.43 c1.52,1.19 0.98,7.01 0.83,9.01 a0.55,0.54 2.2 0 1 -0.55,0.5 H19.66 a0.53,0.51 0 0 1 -0.53,-0.51 l-0.07,-8.78 A0.67,0.64 -0.4 0 1 19.73,429 l35.11,0.01 a1.96,1.94 -25.6 0 1 1.21,0.42 "
			fill="#23272f"></path>
		<path id="E-Lower"
			d="M31.05,464.56 m-0.01,14.92 a0.51,0.5 0 0 0 0.51,0.5 l24.29,0.03 a1.17,1.11 1.4 0 1 1.17,1.17 l-0.39,7.51 a1.43,1.36 1.5 0 1 -1.42,1.29 l-35.89,0.01 a0.3,0.3 89.7 0 1 -0.3,-0.3 v-35.38 a0.3,0.3 -89.7 0 1 0.3,-0.3 h34.98 a0.72,0.71 -90 0 1 0.71,0.72 v8.78 a0.51,0.51 1.3 0 1 -0.51,0.51 l-22.92,0.04 a0.52,0.5 0 0 0 -0.52,0.5 "
			fill="#23272f"></path>
		<path id="N"
			d="M135.94,472.52 m0.05,-42.14 a1.37,1.33 -89.8 0 1 1.34,-1.37 l10.15,0.03 a0.51,0.5 -89.4 0 1 0.49,0.51 l-0.02,59.79 a0.52,0.5 -90 0 1 -0.5,0.52 l-14.97,0.05 a0.79,0.73 75.5 0 1 -0.69,-0.44 l-20.93,-41.75 q-2.12,-4.23 -2.1,0.52 l0.19,40.83 a0.93,0.92 0 0 1 -0.93,0.92 L98.7,489.98 A0.71,0.7 90 0 1 98,489.27 V429.73 A0.73,0.73 -89.4 0 1 98.73,429 l14.26,0.02 a0.8,0.8 76.9 0 1 0.72,0.45 l21.47,42.94 a0.58,0.33 68.4 0 0 0.44,0.35 l0.16,-0.02 a0.23,0.18 87.2 0 0 0.16,-0.22 "
			fill="#23272f"></path>
		<rect id="I" fill="#23272f" x="191" height="61" y="428.98999" width="12" rx="0.69999999"></rect>
		<path id="G"
			d="M276.95,479.18 M277,464.74 a0.74,0.73 -90 0 1 0.73,-0.74 l9.29,0.02 a0.97,0.97 0 0 1 0.97,0.97 l-0.02,23.49 a0.61,0.6 -5.2 0 1 -0.5,0.59 c-14.06,2.61 -42.18,6.81 -42.64,-15.64 q-0.07,-3.51 0.13,-19.65 c0.13,-10.48 -0.4,-18.42 8.63,-23.21 c8.01,-4.24 21.21,-2.95 30.84,-1.31 a1.84,1.84 -82.3 0 1 1.52,2 l-0.7,7.24 a1.42,1.4 -85.1 0 1 -1.49,1.27 q-8.36,-0.54 -16.73,-0.95 c-5.88,-0.29 -9.51,2.06 -9.79,8.08 q-0.48,10.5 -0.19,20.92 c0.18,6.44 0.16,11.46 7.41,12.25 q5.62,0.61 11.99,-0.31 a0.6,0.58 86.6 0 0 0.5,-0.58 "
			fill="#23272f"></path>
		<path id="M"
			d="M342.03,455.52 m-1.18,33.03 a1.79,1.72 1.8 0 1 -1.84,1.66 l-8.96,-0.26 a1.44,1.43 2.2 0 1 -1.39,-1.49 l2.5,-58.17 a1.21,1.15 -88.7 0 1 1.15,-1.16 l11.98,0.01 a0.78,0.71 78.6 0 1 0.68,0.5 l14.72,40.32 q0.63,1.73 1.26,0 l14.57,-40.17 a1.16,1.15 -79.8 0 1 1.08,-0.76 l11.63,-0.01 a1.02,1.01 88.5 0 1 1.01,0.97 q1.31,27.51 2.52,55.01 q0.12,2.74 -0.34,4.51 a0.65,0.63 6.8 0 1 -0.63,0.48 l-10,0.01 a0.8,0.79 -1.9 0 1 -0.8,-0.74 q-1.34,-17.1 -0.94,-34.25 q0.04,-1.49 -0.73,-1.37 a1.01,0.63 -78.5 0 0 -0.62,0.65 l-9.51,26.69 a1.36,1.35 9.7 0 1 -1.28,0.9 l-14.03,0.01 a0.73,0.67 79.7 0 1 -0.65,-0.49 l-9.08,-26.08 q-1,-2.88 -1.12,0.2 "
			fill="#23272f"></path>
		<path id="A"
			d="M457.27,440.24 m-0.22,0.01 a0.4,0.31 -81.2 0 0 -0.29,0.28 l-14.32,48.77 a0.96,0.96 8.1 0 1 -0.92,0.69 l-10.78,-0.01 a0.75,0.74 -81.4 0 1 -0.71,-0.97 l18.83,-59.36 a1.26,1.15 7.8 0 1 1.18,-0.82 l14.52,0.01 a1.42,1.31 -8.1 0 1 1.33,0.92 l18.79,59.69 a0.44,0.43 -8.4 0 1 -0.42,0.56 l-11.55,0.04 a0.66,0.66 81.7 0 1 -0.63,-0.47 l-14.27,-48.86 a0.65,0.46 76.5 0 0 -0.54,-0.48 "
			fill="#23272f"></path>
	</g>
</svg>