<?xml version="1.0" encoding="UTF-8" standalone="no"?>
<svg
	xmlns="http://www.w3.org/2000/svg" xmlns:svg="http://www.w3.org/2000/svg" version="1.1" viewBox="0 0 500 500" id="Enimgma color">
	<g id="icon" transform="matrix(1.214408,0,0,1.2294121,-55.974664,0.26689778)">
		<path fill="#DCD8D0"
			d="M 335.95,67.8 329.33,79 q -1,1.69 0.59,2.61 l 64.7,37.48 a 2.77,2.76 15.1 0 1 1.38,2.39 v 163.78 a 1.08,1.06 -15 0 1 -0.55,0.93 l -74.51,42.86 a 0.57,0.51 -30.4 0 1 -0.74,-0.15 l -6.18,-9.85 a 1.5,1.38 -30.7 0 1 0.59,-1.99 l 66.96,-38.53 a 1.51,1.5 -15.3 0 0 0.76,-1.32 C 382.1,227.4 382,177.61 382,127.79 a 0.98,0.97 14.7 0 0 -0.5,-0.85 L 311.17,86.5 a 0.53,0.52 -60.3 0 1 -0.19,-0.72 l 14.08,-24.62 a 0.53,0.5 29.5 0 0 -0.21,-0.7 L 252.87,19 a 1.63,1.52 16.1 0 1 -0.81,-1.35 l 0.03,-12.2 q 0,-2.42 2.15,-1.18 l 168.68,97.44 q 2.31,1.34 0.02,2.65 l -10.41,5.98 a 1.61,1.54 44.4 0 1 -1.57,-0.02 L 336.97,67.49 a 0.78,0.73 -60 0 0 -1.02,0.31 z"
			id="path8"/>
		<path fill="#DCD8D0"
			d="m 91.99,294.56 c 1.71e-4,0.56821 -0.298816,1.08568 -0.78,1.35 l -11.75,6.56 c -0.19375,0.10596 -0.430192,-0.0425 -0.43,-0.27 l 0.04,-199.04 c 5.1e-5,-0.31039 0.163941,-0.59624 0.43,-0.75 l 91.81,-52.79 c 0.47216,-0.277811 1.08487,-0.106614 1.36,0.38 l 13.82,23.9 c 0.13681,0.234049 0.44154,0.31023 0.68,0.17 l 64.05,-37.18 c 0.31782,-0.183528 0.71566,0.04302 0.72,0.41 l 0.04,13.9 c 8.3e-4,0.568759 -0.30095,1.092107 -0.79,1.37 l -68.31,39.45 c -0.24492,0.143161 -0.55498,0.06677 -0.69,-0.17 L 168.02,67.89 c -0.13606,-0.244833 -0.4441,-0.334122 -0.69,-0.2 -25.2,13.74 -49.9,28.44 -74.83,42.66 -0.271474,0.15451 -0.439378,0.44452 -0.44,0.76 0,72.25702 -0.07,119.30378 -0.07,183.45 z"
			id="Top-left" />
		<path fill="#DCD8D0"
			d="m 256.29,72.86 q 53.69,31.18 108.41,62.6 1.7,0.97 1.96,2.92 0.3,2.24 0.3,5.37 0.04,62.09 0.03,124.15 a 0.99,0.99 -75.1 0 1 -1.48,0.86 L 354,262.17 a 1.98,1.98 14.9 0 1 -1,-1.72 l -0.01,-115.14 a 1.85,1.84 -75.2 0 0 -0.92,-1.6 L 252.28,86.19 a 0.99,0.97 -44.5 0 0 -0.99,0 l -100.1,57.86 a 0.94,0.85 -44.3 0 1 -0.89,0.03 l -12.11,-6.79 q -1.13,-0.64 0.04,-1.31 55.23,-31.72 110.54,-64 c 3.43,-2 4.68,-0.77 7.52,0.88 z"
			id="Top-Right"/>
		<path fill="#DCD8D0"
			d="m 229.95,149.73 a 0.76,0.74 -29.8 0 0 1.04,0.27 l 20.27,-11.78 a 1.58,1.51 44.4 0 1 1.55,0.02 l 54.09,31.36 a 2.22,2.17 15.4 0 1 1.1,1.89 l -0.01,32.37 a 1.12,1.11 -89.7 0 1 -1.12,1.12 l -55.21,-0.03 a 0.53,0.49 0 0 1 -0.53,-0.49 v -11.91 a 0.54,0.5 0 0 1 0.54,-0.5 l 42.67,-0.09 a 0.53,0.52 0.6 0 0 0.53,-0.51 l 0.06,-12.11 a 2.11,1.93 16.3 0 0 -1.06,-1.75 l -40.83,-23.48 a 2.3,2.26 44.7 0 0 -2.26,-0.01 l -41.07,23.67 a 1.03,1.01 -14.8 0 0 -0.51,0.86 q -0.72,25.35 -0.29,48.14 a 0.89,0.88 -75.6 0 0 0.44,0.75 l 41.95,24.3 a 0.89,0.89 90 0 0 0.88,0 l 40.83,-23.43 q 1.53,-0.88 3.13,-0.15 5.68,2.57 11.52,6.78 a 0.32,0.32 -42.1 0 1 -0.03,0.54 q -26.26,14.87 -52.17,30.2 c -2.86,1.69 -4.86,1.4 -7.54,-0.17 Q 222.36,250.6 196.59,235.71 a 1.15,1.15 -75.2 0 1 -0.58,-1 v -63.5 a 1.63,1.58 75.2 0 1 0.78,-1.39 l 21.51,-12.53 a 1.11,1.08 -29.9 0 0 0.42,-1.48 l -13.69,-23.87 a 0.69,0.68 59.8 0 1 0.24,-0.93 l 45.81,-26.49 a 1.02,0.93 -46.3 0 1 0.89,-0.06 q 1.43,0.62 4.31,2.29 40.02,23.13 80.17,46.05 a 0.77,0.75 44.2 0 1 0.03,1.31 l -10.95,6.66 a 2.54,2.46 43.9 0 1 -2.55,0.01 L 253.14,120.5 q -1.49,-0.86 -2.99,0.03 l -26.89,15.75 a 0.7,0.69 -30 0 0 -0.26,0.93 z"
			id="path14"/>
		<path fill="#DCD8D0"
			d="m 121.55,191.94 28.89,0.18 a 0.51,0.5 90 0 1 0.5,0.51 l 0.04,68.1 a 1.25,1.22 -15.2 0 1 -0.63,1.07 l -12.07,6.95 A 0.85,0.85 -15.1 0 1 137,268.02 l -0.01,-62.48 a 0.5,0.5 0 0 0 -0.5,-0.5 l -13.44,-0.01 q -2.05,-0.01 -2.05,2.08 0,32.48 -0.01,64.83 c 0,2.35 -1.27,5.18 1.69,6.88 q 64.37,37.1 128.66,74.35 a 1.28,1.24 15.7 0 1 0.63,1.08 l -0.01,14.01 a 0.37,0.36 15 0 1 -0.55,0.31 l -53.42,-30.58 a 0.92,0.89 30.5 0 0 -1.23,0.3 l -7.06,11.95 a 0.86,0.83 30 0 0 0.33,1.16 l 60.73,35.02 a 2.36,2.35 44.8 0 0 2.37,0 l 157.88,-91.15 a 1.72,1.64 44 0 1 1.68,0.01 l 11.82,6.78 q 0.73,0.41 0.01,0.83 L 252.67,402.2 a 1.6,1.6 44.3 0 1 -1.6,0 l -79.05,-45.71 a 0.49,0.47 30.8 0 1 -0.18,-0.66 l 13.81,-23.84 a 1.23,1.22 -60 0 0 -0.44,-1.68 L 109.01,286.5 A 1.99,1.99 -75.3 0 1 108,284.77 V 120.6 q 0,-1.18 0.99,-0.61 l 11.11,6.42 a 1.98,1.71 -77.1 0 1 0.87,1.64 l 0.09,63.39 a 0.5,0.49 90 0 0 0.49,0.5 z"
			id="path16"/>
		<path fill="#DCD8D0"
			d="m 180.75,244.94 70.05,40.66 a 1.78,1.76 44.7 0 0 1.77,0 l 70.99,-41.09 a 0.91,0.91 -15.1 0 0 0.44,-0.76 v -37.51 a 1.24,1.23 -90 0 1 1.23,-1.24 l 11.05,0.02 a 0.79,0.78 -90 0 1 0.78,0.79 l -0.03,45.95 a 0.89,0.82 76 0 1 -0.41,0.75 l -34.3,19.68 a 0.75,0.73 -30.4 0 0 -0.28,1.01 l 13.69,23.2 a 1.5,1.48 59.6 0 1 -0.52,2.05 l -61.63,35.7 q -1.78,1.04 -3.57,0 l -48.57,-28.2 a 1.01,0.99 30.4 0 1 -0.37,-1.37 l 5.57,-9.5 a 1.54,1.51 30.6 0 1 2.1,-0.52 q 19.1,11.25 38.63,22.48 c 2.67,1.54 3.89,3.04 7.09,1.16 q 8.96,-5.24 43.73,-25.33 a 0.5,0.5 0 0 0 0.18,-0.68 l -7.27,-12.6 a 0.74,0.73 -30.6 0 0 -1.01,-0.25 q -16.17,9.54 -32.51,18.74 -3.84,2.16 -6.32,2.6 a 1.42,1.29 52.6 0 1 -0.93,-0.17 l -83.3,-47.97 A 2.04,2.02 -75.4 0 1 166,250.77 v -95.43 q 0,-2.25 1.92,-1.16 l 11.19,6.38 a 1.92,1.75 -76.3 0 1 0.88,1.61 q 0.03,38.8 -0.01,77.27 0,3.34 0.23,4.76 a 1.15,1 13.1 0 0 0.54,0.74 z"
			id="path22"/>
	</g>
</svg>